<svg width="64" height="53" viewBox="0 0 64 53" fill="none" xmlns="http://www.w3.org/2000/svg">
<path d="M24.5946 37.65C28.4137 41.3429 34.0129 43.6711 40.2494 43.6711H42.0619L47.4993 48.7961C48.1212 49.3819 48.9011 49.7727 49.7427 49.9204C50.5843 50.0683 51.4506 49.9665 52.235 49.6275C53.0193 49.2886 53.6873 48.7271 54.1563 48.0129C54.6253 47.2988 54.875 46.4629 54.8744 45.6083V38.6292L54.8326 38.5875C56.7406 37.074 58.2902 35.1573 59.3707 32.9746C60.4512 30.7921 61.0358 28.3977 61.0826 25.9627C61.0826 16.1919 51.7493 8.25436 40.2494 8.25436C39.9829 8.25436 39.7177 8.25861 39.4536 8.26704" stroke="white" stroke-width="3.125" stroke-linecap="round" stroke-linejoin="round"/>
<path d="M50.7067 23.9417H43.79" stroke="white" stroke-width="3.125" stroke-linecap="round" stroke-linejoin="round"/>
<path d="M50.7067 30.1917H40.79" stroke="white" stroke-width="3.125" stroke-linecap="round" stroke-linejoin="round"/>
<path d="M8.70564 32.6292V39.6083C8.70504 40.4629 8.95469 41.2988 9.42371 42.0129C9.89273 42.7271 10.5607 43.2885 11.345 43.6275C12.1294 43.9665 12.9957 44.0683 13.8373 43.9204C14.6789 43.7727 15.4588 43.3819 16.0807 42.796L21.5181 37.671H23.3306C34.8306 37.671 44.164 29.7544 44.164 19.9627C44.164 10.171 34.8306 2.25436 23.3306 2.25436C11.8307 2.25436 2.49735 10.1919 2.49735 19.9627C2.54417 22.3977 3.12877 24.7921 4.20927 26.9746C5.28977 29.1573 6.83944 31.074 8.74735 32.5875L8.70564 32.6292Z" stroke="#7F7F7F" stroke-width="3.125" stroke-linecap="round" stroke-linejoin="round"/>
<path d="M33.7067 17.9417H12.8733" stroke="#7F7F7F" stroke-width="3.125" stroke-linecap="round" stroke-linejoin="round"/>
<path d="M25.3733 24.1917H12.8733" stroke="#7F7F7F" stroke-width="3.125" stroke-linecap="round" stroke-linejoin="round"/>
</svg>
