<svg width="70" height="55" viewBox="0 0 70 55" fill="none" xmlns="http://www.w3.org/2000/svg">
<path d="M29.8764 4.08095L27.3364 0.175751C9.76301 11.9882 0 26.3406 0 38.1531C0 49.575 8.39775 54.9454 15.524 54.9454C24.5059 54.9454 30.8511 47.3287 30.8511 39.3246C30.8511 32.5889 26.5554 26.828 20.7944 24.6786C19.1355 24.0912 17.5734 23.6038 17.5734 20.7734C17.5734 17.1618 20.2102 11.7945 29.8764 4.08095ZM68.6347 4.08095L66.0948 0.175751C48.7151 11.9882 38.7584 26.3406 38.7584 38.1531C38.7584 49.575 47.3498 54.9454 54.476 54.9454C63.5549 54.9454 70 47.3287 70 39.3246C70 32.5889 65.6074 26.828 59.6496 24.6786C57.9907 24.0912 56.5255 23.6038 56.5255 20.7734C56.5255 17.1618 59.2591 11.7914 68.6316 4.07783L68.6347 4.08095Z" fill="#D9D9D9"/>
</svg>
