<svg width="18" height="18" viewBox="0 0 18 18" fill="none" xmlns="http://www.w3.org/2000/svg">
<g clip-path="url(#clip0_48_45)">
<path fill-rule="evenodd" clip-rule="evenodd" d="M12.7794 11.7183C13.7036 10.563 14.2561 9.09758 14.2561 7.50307C14.2561 3.77345 11.2327 0.75 7.50307 0.75C3.77345 0.75 0.75 3.77345 0.75 7.50307C0.75 11.2327 3.77345 14.2561 7.50307 14.2561C9.09758 14.2561 10.563 13.7036 11.7183 12.7794L15.9691 17.0303C16.2621 17.3233 16.7372 17.3233 17.0303 17.0303C17.3233 16.7372 17.3233 16.2621 17.0303 15.9691L12.7794 11.7183ZM7.50307 12.763C4.5981 12.763 2.24315 10.408 2.24315 7.50307C2.24315 4.5981 4.5981 2.24315 7.50307 2.24315C10.408 2.24315 12.763 4.5981 12.763 7.50307C12.763 10.408 10.408 12.763 7.50307 12.763Z" fill="#0F0F0F"/>
</g>
<defs>
<clipPath id="clip0_48_45">
<rect width="18" height="18" fill="white"/>
</clipPath>
</defs>
</svg>
